<svg width="136" height="83" viewBox="0 0 136 83" fill="none" xmlns="http://www.w3.org/2000/svg">
    <g clip-path="url(#clip0_19_5)">
        <path
            d="M92.7416 79.498C92.7416 79.498 92.5163 67.1095 92.7416 59.9016C92.9668 52.6938 93.4173 53.4821 92.7416 50.8918C92.0658 48.3015 90.4891 42.4451 91.1648 37.4896C91.8406 32.5342 92.1037 30.0565 93.0983 28.3672C93.0983 28.3672 95.1066 25.6084 96.7392 26.0021C98.3727 26.3967 100.343 27.2409 100.343 27.2409C100.343 27.2409 100.963 27.6356 101.188 29.6628C101.414 31.69 102.033 32.7604 102.483 33.7731C102.934 34.7858 103.159 39.4042 103.159 39.4042C103.159 39.4042 102.99 40.3611 101.977 40.4178C100.963 40.4746 99.6116 39.798 98.7664 37.4896C97.9222 35.1813 97.7006 34.2803 97.0789 33.21C96.4572 32.1396 95.9509 31.1827 95.9509 31.1827"
            stroke="#F9BF2E" stroke-miterlimit="10" stroke-linecap="round" stroke-linejoin="round" />
        <path d="M94.1494 32.929C94.1494 32.929 96.1244 33.6047 97.0794 33.6047" stroke="#F9BF2E"
            stroke-miterlimit="10" stroke-linecap="round" stroke-linejoin="round" />
        <path
            d="M100.169 27.168C100.169 27.168 101.471 25.8337 101.809 25.1579C102.147 24.4822 103.33 23.8065 105.807 23.9758C108.285 24.1452 107.215 29.7196 107.215 30.1134C107.215 30.5071 106.989 33.0416 107.102 34.9561C107.215 36.8707 107.552 38.3907 107.552 38.3907C107.665 39.6296 106.817 40.6134 105.469 40.7558C103.33 40.981 103.16 39.4043 103.16 39.4043L103.04 37.5636"
            stroke="#F9BF2E" stroke-miterlimit="10" stroke-linecap="round" stroke-linejoin="round" />
        <path
            d="M102.015 27.2041C102.015 27.2041 101.989 27.806 102.089 29.325C102.189 30.8513 102.792 35.1778 102.792 35.1778"
            stroke="#F9BF2E" stroke-miterlimit="10" stroke-linecap="round" stroke-linejoin="round" />
        <path d="M107.442 27.3546C107.442 27.3546 107.277 24.3516 107.442 23.2253" stroke="#F9BF2E"
            stroke-miterlimit="10" stroke-linecap="round" stroke-linejoin="round" />
        <path
            d="M105.168 23.9489C105.168 23.9489 107.533 20.9342 108.509 20.5963C109.485 20.2584 112.263 19.5079 113.201 21.6847C114.14 23.8624 113.088 28.3673 112.825 30.1314C112.562 31.8956 112.224 31.8586 111.85 34.8616C111.474 37.8646 110.432 38.9512 109.376 38.9539C107.795 38.9584 107.442 38.0529 107.38 37.4645"
            stroke="#F9BF2E" stroke-miterlimit="10" stroke-linecap="round" stroke-linejoin="round" />
        <path
            d="M111.523 20.2863V17.1806C111.523 17.1806 111.775 14.5524 112.076 13.3892C112.376 12.2251 112.452 8.99692 112.452 8.32118V3.44055C112.452 3.44055 112.152 1.03762 114.066 1.00068C115.981 0.963742 116.844 2.42694 116.882 5.9561C116.92 9.48525 117.145 16.0174 117.145 17.8941C117.145 19.7709 116.958 22.2117 116.995 25.0642C117.032 27.9176 116.844 31.5585 116.957 33.3604C116.957 33.3604 117.107 36.0256 119.247 35.9129C121.387 35.8003 122.438 35.2372 123.639 34.7489C124.84 34.2605 126.793 32.6838 129.12 32.5712C131.447 32.4586 134.488 32.4964 135.24 33.9227C135.99 35.3489 134.451 36.1003 133.325 36.213C133.325 36.213 132.086 36.3256 131.298 36.7382C130.509 37.1509 129.196 38.4276 126.943 39.1412C124.691 39.8547 122.587 40.8314 121.386 42.0324C120.185 43.2334 118.87 44.0218 117.257 45.0732C115.642 46.1247 114.216 47.8888 113.052 48.9772C111.888 50.0656 109.718 50.7792 109.377 54.1957C109.035 57.6122 109.711 70.7891 109.824 73.2668C109.936 75.7446 110.725 81 110.725 81"
            stroke="#F9BF2E" stroke-miterlimit="10" stroke-linecap="round" stroke-linejoin="round" />
        <path
            d="M47.7416 80.498C47.7416 80.498 47.5163 68.1095 47.7416 60.9016C47.9668 53.6938 48.4173 54.4821 47.7416 51.8918C47.0658 49.3015 45.4891 43.4451 46.1648 38.4896C46.8406 33.5342 47.1037 31.0565 48.0983 29.3672C48.0983 29.3672 50.1066 26.6084 51.7392 27.0021C53.3727 27.3967 55.3432 28.2409 55.3432 28.2409C55.3432 28.2409 55.963 28.6356 56.1883 30.6628C56.4135 32.69 57.0325 33.7604 57.483 34.7731C57.9335 35.7858 58.1587 40.4042 58.1587 40.4042C58.1587 40.4042 57.9903 41.3611 56.9766 41.4178C55.963 41.4746 54.6116 40.798 53.7664 38.4896C52.9222 36.1813 52.7006 35.2803 52.0789 34.21C51.4572 33.1396 50.9509 32.1827 50.9509 32.1827"
            stroke="#F9BF2E" stroke-miterlimit="10" stroke-linecap="round" stroke-linejoin="round" />
        <path d="M49.1494 33.929C49.1494 33.929 51.1244 34.6047 52.0794 34.6047" stroke="#F9BF2E"
            stroke-miterlimit="10" stroke-linecap="round" stroke-linejoin="round" />
        <path
            d="M55.1689 28.168C55.1689 28.168 56.4709 26.8337 56.8087 26.1579C57.1466 25.4822 58.3296 24.8065 60.8073 24.9758C63.285 25.1452 62.2146 30.7196 62.2146 31.1134C62.2146 31.5071 61.9894 34.0416 62.102 35.9561C62.2146 37.8707 62.5525 39.3907 62.5525 39.3907C62.6651 40.6296 61.8173 41.6134 60.4694 41.7558C58.3296 41.981 58.1602 40.4043 58.1602 40.4043L58.0404 38.5636"
            stroke="#F9BF2E" stroke-miterlimit="10" stroke-linecap="round" stroke-linejoin="round" />
        <path
            d="M57.0146 28.2041C57.0146 28.2041 56.9893 28.806 57.0893 30.325C57.1893 31.8513 57.7921 36.1778 57.7921 36.1778"
            stroke="#F9BF2E" stroke-miterlimit="10" stroke-linecap="round" stroke-linejoin="round" />
        <path d="M62.4423 28.3546C62.4423 28.3546 62.2766 25.3516 62.4423 24.2253" stroke="#F9BF2E"
            stroke-miterlimit="10" stroke-linecap="round" stroke-linejoin="round" />
        <path
            d="M60.168 24.9489C60.168 24.9489 62.5331 21.9342 63.5088 21.5963C64.4846 21.2584 67.2632 20.5079 68.2011 22.6847C69.14 24.8624 68.0885 29.3673 67.8254 31.1314C67.5623 32.8956 67.2245 32.8586 66.8497 35.8616C66.474 38.8646 65.4324 39.9512 64.3756 39.9539C62.7952 39.9584 62.4421 39.0529 62.3799 38.4645"
            stroke="#F9BF2E" stroke-miterlimit="10" stroke-linecap="round" stroke-linejoin="round" />
        <path
            d="M66.5229 21.2863V18.1806C66.5229 18.1806 66.7751 15.5524 67.0761 14.3892C67.3761 13.2251 67.4518 9.99692 67.4518 9.32118V4.44055C67.4518 4.44055 67.1517 2.03762 69.0663 2.00068C70.9809 1.96374 71.8441 3.42694 71.8819 6.9561C71.9198 10.4853 72.145 17.0174 72.145 18.8941C72.145 20.7709 71.9576 23.2117 71.9945 26.0642C72.0324 28.9176 71.8441 32.5585 71.9567 34.3604C71.9567 34.3604 72.1072 37.0256 74.247 36.9129C76.3868 36.8003 77.4383 36.2372 78.6393 35.7489C79.8403 35.2605 81.7927 33.6838 84.12 33.5712C86.4472 33.4586 89.4881 33.4964 90.2395 34.9227C90.99 36.3489 89.4511 37.1003 88.3249 37.213C88.3249 37.213 87.086 37.3256 86.2977 37.7382C85.5093 38.1509 84.1957 39.4276 81.9432 40.1412C79.6907 40.8547 77.587 41.8314 76.3859 43.0324C75.1849 44.2334 73.8704 45.0218 72.2567 46.0732C70.6422 47.1247 69.2159 48.8888 68.0518 49.9772C66.8878 51.0656 64.7182 51.7792 64.3767 55.1957C64.0352 58.6122 64.711 71.7891 64.8236 74.2668C64.9362 76.7446 65.7246 82 65.7246 82"
            stroke="#F9BF2E" stroke-miterlimit="10" stroke-linecap="round" stroke-linejoin="round" />
        <path d="M26.7631 77.3654H39V82H21V54H26.7631V77.3654Z" fill="url(#paint0_diamond_19_5)" />
        <path d="M5.76309 77.3654H18V82H0V54H5.76309V77.3654Z" fill="url(#paint1_diamond_19_5)" />
    </g>
    <defs>
        <radialGradient id="paint0_diamond_19_5" cx="0" cy="0" r="1" gradientUnits="userSpaceOnUse"
            gradientTransform="translate(28.4192 71.0638) rotate(88.0775) scale(44.4206 44.3406)">
            <stop stop-color="#FFD458" stop-opacity="0.78" />
            <stop offset="1" stop-color="#F9BF2E" />
        </radialGradient>
        <radialGradient id="paint1_diamond_19_5" cx="0" cy="0" r="1" gradientUnits="userSpaceOnUse"
            gradientTransform="translate(7.41922 71.0638) rotate(88.0775) scale(44.4206 44.3406)">
            <stop stop-color="#FFD458" stop-opacity="0.78" />
            <stop offset="1" stop-color="#F9BF2E" />
        </radialGradient>
        <clipPath id="clip0_19_5">
            <rect width="136" height="83" fill="white" />
        </clipPath>
    </defs>
</svg>
    