<svg width="122" height="83" viewBox="0 0 122 83" fill="none" xmlns="http://www.w3.org/2000/svg">
    <g clip-path="url(#clip0_20_68)">
        <path
            d="M97.2098 81.3102C97.2098 81.3102 97.8994 65.9096 97.9757 64.5304C98.052 63.1512 97.8222 61.0825 97.9757 59.7033C98.1293 58.3242 98.7738 57.0985 97.9923 54.6464C97.2098 52.1942 95.6771 50.0492 96.0605 42.5401C96.0605 42.5401 96.5203 39.0922 96.6738 38.4789C96.8274 37.8656 97.0048 34.4177 98.372 33.3456C99.7383 32.2726 101.501 31.2006 102.344 30.8935C103.187 30.5873 103.417 29.8977 103.417 29.8977C103.417 29.8977 104.183 24.2275 106.789 23.5379C106.789 23.5379 108.781 23.2318 109.393 23.5379C110.007 23.8441 110.389 24.7636 110.389 28.4413C110.389 28.4413 110.466 32.0428 111.538 33.422C112.611 34.8011 112.304 36.3044 112.304 37.4684"
            stroke="#F9BF2E" stroke-miterlimit="10" stroke-linecap="round" stroke-linejoin="round" />
        <path
            d="M114.374 82.0001C114.374 82.0001 113.76 74.4147 113.76 70.8904C113.76 67.3662 114.296 61.9259 114.374 60.623C114.45 59.3202 114.374 58.478 114.374 58.478C114.374 58.478 114.374 56.7926 114.833 56.1794C115.293 55.5661 117.056 54.2642 118.435 48.9001C119.814 43.5361 120.963 43.3071 120.887 41.5446C120.811 39.782 118.894 37.5606 118.435 36.4876C117.975 35.4146 117.326 33.1933 117.326 33.1933C117.326 33.1933 116.366 30.7411 115.676 29.7454C114.987 28.7496 114.451 26.987 114.374 24.9946C114.296 23.0022 112.622 22.1866 111.462 24.0751C110.302 25.9637 110.359 27.843 110.389 28.4425"
            stroke="#F9BF2E" stroke-miterlimit="10" stroke-linecap="round" stroke-linejoin="round" />
        <path
            d="M120.161 39.3865C120.161 39.3865 120.969 32.8097 120.889 30.205C120.809 27.6002 121.422 24.1651 121.422 23.0094C121.422 21.8537 121.428 9.67103 120.161 7.44873C118.894 5.22644 116.365 6.52929 116.365 8.52172C116.365 10.5142 116.059 16.1834 115.981 17.41C115.905 18.6356 115.033 23.893 115.239 28.9646"
            stroke="#F9BF2E" stroke-miterlimit="10" stroke-linecap="round" stroke-linejoin="round" />
        <path
            d="M110.197 25.1167C110.197 25.1167 111.385 18.9408 111.997 17.409C112.61 15.8763 114.066 11.4327 114.296 10.4369C114.525 9.44115 115.598 6.60559 115.981 5.22642C116.363 3.84726 116.594 1.85482 118.969 2.00837C121.344 2.16192 120.16 7.44872 120.16 7.44872"
            stroke="#F9BF2E" stroke-miterlimit="10" stroke-linecap="round" stroke-linejoin="round" />
        <path
            d="M104.173 30.741C104.173 30.741 105.638 30.8945 106.175 32.886C106.711 34.8785 107.325 36.4581 107.784 37.4685C108.244 38.479 108.168 40.6241 109.01 42.5402C109.853 44.4554 106.788 45.6819 105.409 43.1535C104.029 40.625 104.183 40.7528 103.799 39.3865C103.416 38.0202 102.114 37.2543 101.577 35.7979"
            stroke="#F9BF2E" stroke-miterlimit="10" stroke-linecap="round" stroke-linejoin="round" />
        <path d="M98.8188 38.5561C98.8188 38.5561 102.267 38.808 103.149 38.146" stroke="#F9BF2E"
            stroke-miterlimit="10" stroke-linecap="round" stroke-linejoin="round" />
        <path d="M105.365 27.4468C105.365 27.4468 105.025 30.5113 106.174 32.8871" stroke="#F9BF2E"
            stroke-miterlimit="10" stroke-linecap="round" stroke-linejoin="round" />
        <path
            d="M108.209 39.3865C108.209 39.3865 108.397 41.3918 109.699 41.3146C111.002 41.2383 111.384 40.2931 111.461 39.3865C111.538 38.4799 112.089 35.1561 110.933 32.144"
            stroke="#F9BF2E" stroke-miterlimit="10" stroke-linecap="round" stroke-linejoin="round" />
        <path
            d="M67.2098 80.3102C67.2098 80.3102 67.8994 64.9096 67.9757 63.5304C68.052 62.1512 67.8222 60.0825 67.9757 58.7033C68.1293 57.3242 68.7738 56.0985 67.9923 53.6464C67.2098 51.1942 65.6771 49.0492 66.0605 41.5401C66.0605 41.5401 66.5203 38.0922 66.6738 37.4789C66.8274 36.8656 67.0048 33.4177 68.372 32.3456C69.7383 31.2726 71.5009 30.2006 72.344 29.8935C73.1871 29.5873 73.417 28.8977 73.417 28.8977C73.417 28.8977 74.1829 23.2275 76.7886 22.5379C76.7886 22.5379 78.781 22.2318 79.3934 22.5379C80.0067 22.8441 80.3891 23.7636 80.3891 27.4413C80.3891 27.4413 80.4655 31.0428 81.5384 32.422C82.6114 33.8011 82.3043 35.3044 82.3043 36.4684"
            stroke="#F9BF2E" stroke-miterlimit="10" stroke-linecap="round" stroke-linejoin="round" />
        <path
            d="M84.3736 81.0001C84.3736 81.0001 83.7604 73.4147 83.7604 69.8904C83.7604 66.3662 84.2964 60.9259 84.3736 59.623C84.4499 58.3202 84.3736 57.478 84.3736 57.478C84.3736 57.478 84.3736 55.7926 84.8333 55.1794C85.2931 54.5661 87.0556 53.2642 88.4348 47.9001C89.814 42.5361 90.9633 42.3071 90.887 40.5446C90.8107 38.782 88.8945 36.5606 88.4348 35.4876C87.9751 34.4146 87.326 32.1933 87.326 32.1933C87.326 32.1933 86.3661 29.7411 85.6765 28.7454C84.9869 27.7496 84.4509 25.987 84.3736 23.9946C84.2964 22.0022 82.6221 21.1866 81.4617 23.0751C80.3023 24.9637 80.3593 26.843 80.3888 27.4425"
            stroke="#F9BF2E" stroke-miterlimit="10" stroke-linecap="round" stroke-linejoin="round" />
        <path
            d="M90.1612 38.3865C90.1612 38.3865 90.9694 31.8097 90.8894 29.205C90.8094 26.6002 91.4217 23.1651 91.4217 22.0094C91.4217 20.8537 91.4282 8.67103 90.1612 6.44873C88.8942 4.22644 86.3648 5.52929 86.3648 7.52172C86.3648 9.51416 86.0586 15.1834 85.9814 16.41C85.9051 17.6356 85.0335 22.893 85.2394 27.9646"
            stroke="#F9BF2E" stroke-miterlimit="10" stroke-linecap="round" stroke-linejoin="round" />
        <path
            d="M80.1968 24.1167C80.1968 24.1167 81.3847 17.9408 81.997 16.409C82.6103 14.8763 84.0658 10.4327 84.2957 9.43691C84.5255 8.44115 85.5985 5.60559 85.981 4.22642C86.3635 2.84726 86.5943 0.854825 88.9692 1.00837C91.3441 1.16192 90.1599 6.44872 90.1599 6.44872"
            stroke="#F9BF2E" stroke-miterlimit="10" stroke-linecap="round" stroke-linejoin="round" />
        <path
            d="M74.1727 29.741C74.1727 29.741 75.6384 29.8945 76.1754 31.886C76.7114 33.8785 77.3247 35.4581 77.7844 36.4685C78.2441 37.479 78.1677 39.6241 79.0099 41.5402C79.8531 43.4554 76.7877 44.6819 75.4086 42.1535C74.0294 39.625 74.1829 39.7528 73.7994 38.3865C73.416 37.0202 72.1141 36.2543 71.5771 34.7979"
            stroke="#F9BF2E" stroke-miterlimit="10" stroke-linecap="round" stroke-linejoin="round" />
        <path d="M68.8188 37.5561C68.8188 37.5561 72.2668 37.808 73.1485 37.146" stroke="#F9BF2E"
            stroke-miterlimit="10" stroke-linecap="round" stroke-linejoin="round" />
        <path d="M75.3649 26.4468C75.3649 26.4468 75.0247 29.5113 76.174 31.8871" stroke="#F9BF2E"
            stroke-miterlimit="10" stroke-linecap="round" stroke-linejoin="round" />
        <path
            d="M78.2095 38.3865C78.2095 38.3865 78.397 40.3918 79.699 40.3146C81.0018 40.2383 81.3843 39.2931 81.4615 38.3865C81.5379 37.4799 82.0895 34.1561 80.9329 31.144"
            stroke="#F9BF2E" stroke-miterlimit="10" stroke-linecap="round" stroke-linejoin="round" />
        <path
            d="M44.6328 70.6328H39.0312L39 83H32V49H44.6797C48.711 49 51.8204 49.8984 54.0079 51.6953C56.1954 53.4922 57.289 56.0312 57.289 59.3125C57.289 61.6406 56.7812 63.5859 55.7656 65.1484C54.7656 66.6953 53.2422 67.9297 51.1954 68.8516L58.5781 83H51L44.6328 70.6328ZM39.0312 64.9375H44.7031C46.4687 64.9375 47.8359 64.4922 48.8046 63.6016C49.7734 62.6953 50.2579 61.4531 50.2579 59.875C50.2579 58.2656 49.7968 57 48.875 56.0781C47.9687 55.1563 46.5704 54.6953 44.6797 54.6953H39.0312V64.9375Z"
            fill="url(#paint0_diamond_20_68)" />
        <path
            d="M12.6328 70.6328H7.03125L7 83H0V49H12.6797C16.711 49 19.8204 49.8984 22.0079 51.6953C24.1954 53.4922 25.289 56.0312 25.289 59.3125C25.289 61.6406 24.7812 63.5859 23.7656 65.1484C22.7656 66.6953 21.2422 67.9297 19.1954 68.8516L26.5781 83H19L12.6328 70.6328ZM7.03125 64.9375H12.7031C14.4687 64.9375 15.8359 64.4922 16.8046 63.6016C17.7734 62.6953 18.2579 61.4531 18.2579 59.875C18.2579 58.2656 17.7968 57 16.875 56.0781C15.9687 55.1563 14.5704 54.6953 12.6797 54.6953H7.03125V64.9375Z"
            fill="url(#paint1_diamond_20_68)" />
        <path
            d="M113.319 5.07956C110.813 5.9433 108.289 6.64195 105.741 7.19297C103.192 7.74398 100.619 8.14737 98.0308 8.40217C96.5779 8.53786 95.1108 8.62496 93.6493 8.6781C93.3592 8.69184 93.4457 9.51729 93.7359 9.50355C96.3345 9.43129 98.9265 9.2095 101.501 8.82263C104.076 8.43576 106.626 7.90126 109.161 7.21817C110.587 6.83485 112 6.40294 113.415 5.90406C113.529 5.85875 113.623 5.71534 113.597 5.4677C113.567 5.27054 113.442 5.03331 113.319 5.07956Z"
            fill="#F9BF2E" />
        <path
            d="M95.0886 10.3895C94.776 10.0683 94.6954 9.93961 94.4212 9.58449C94.111 9.18273 94.24 9.34239 93.9922 8.99593C93.9204 8.92 93.9223 8.84976 93.8433 8.79128C93.7948 8.76299 93.8468 8.82431 93.8145 8.77762C93.8395 8.84176 93.7476 8.72152 93.7725 8.78566C93.7091 8.87577 93.8134 8.9149 93.7725 8.78566C93.8051 8.74886 93.7819 8.81442 93.8145 8.77762C93.8853 8.67005 93.956 8.56249 94.0285 8.47144C94.1626 8.27377 94.3058 8.07516 94.44 7.87749C94.7174 7.48121 95.0038 7.08399 95.2902 6.68676C95.5041 6.38058 95.2043 5.69433 94.9904 6.0005C94.6315 6.48878 94.2744 6.99358 93.9263 7.49742C93.7595 7.73189 93.5927 7.96636 93.4367 8.21639C93.2807 8.46642 93.2145 8.81304 93.3763 9.29091C93.7212 9.68373 93.5676 9.56712 93.7292 9.71708C93.8709 9.85242 94.054 10.1512 94.1812 10.3214C94.4786 10.7242 94.7476 10.9586 95.2023 11.2358C95.3191 11.307 95.4526 11.2763 95.4932 11.0551C95.4048 10.6829 95.4854 10.7974 95.0886 10.3895Z"
            fill="#F9BF2E" />
    </g>
    <defs>
        <radialGradient id="paint0_diamond_20_68" cx="0" cy="0" r="1" gradientUnits="userSpaceOnUse"
            gradientTransform="translate(44.2424 64.8929) rotate(88.0754) scale(45.1147 45.0815)">
            <stop stop-color="#FFD458" stop-opacity="0.78" />
            <stop offset="1" stop-color="#F9BF2E" />
        </radialGradient>
        <radialGradient id="paint1_diamond_20_68" cx="0" cy="0" r="1" gradientUnits="userSpaceOnUse"
            gradientTransform="translate(12.2424 64.8929) rotate(88.0754) scale(45.1147 45.0815)">
            <stop stop-color="#FFD458" stop-opacity="0.78" />
            <stop offset="1" stop-color="#F9BF2E" />
        </radialGradient>
        <clipPath id="clip0_20_68">
            <rect width="122" height="83" fill="white" />
        </clipPath>
    </defs>
</svg>
    