<svg width="78" height="94" viewBox="0 0 78 94" fill="none" xmlns="http://www.w3.org/2000/svg">
    <g clip-path="url(#clip0_19_35)">
        <path
            d="M48.1922 92.9998C48.1922 92.9998 48.5439 81.0437 48.1922 76.4722C47.8406 71.9008 47.4889 56.5454 47.3717 55.6076C47.2545 54.6699 47.1373 53.0289 46.434 51.0362C45.7307 49.0435 43.9724 45.1753 44.0896 39.7833C44.2068 34.3914 43.8439 34.6258 44.084 32.7503C44.3241 30.8749 44.6757 30.406 45.4962 28.8822C46.3167 27.3584 48.5439 26.069 49.4816 25.6001C50.4193 25.1312 51.8259 25.2485 52.5292 26.3034C53.2325 27.3584 54.4047 31.9298 54.8736 34.0397C55.3425 36.1496 55.8113 40.9555 58.859 40.6039C61.9066 40.2522 60.5 35.9152 60.1483 34.6258C59.7967 33.3364 58.3901 25.014 58.2729 22.5525C58.1557 20.0909 55.3425 20.2081 54.2875 20.677C53.2325 21.1459 52.0857 21.4872 52.8481 26.9373"
            stroke="#F9BF2E" stroke-miterlimit="10" stroke-linecap="round" stroke-linejoin="round" />
        <path
            d="M47.6641 29.7612C47.6641 29.7612 47.7813 30.6408 48.719 31.9884C48.9928 32.3822 49.2713 32.8604 49.5377 33.3612C50.1838 34.5756 50.7558 35.9203 51.0043 36.5007C51.3559 37.3213 52.83 40.0088 54.8134 39.9C56.7976 39.7912 56.0746 38.6556 56.0746 38.6556"
            stroke="#F9BF2E" stroke-miterlimit="10" stroke-linecap="round" stroke-linejoin="round" />
        <path d="M46.0234 33.0432C46.0234 33.0432 47.6063 33.3358 49.1302 33.3358" stroke="#F9BF2E"
            stroke-miterlimit="10" stroke-linecap="round" stroke-linejoin="round" />
        <path
            d="M57.7822 21.1949C57.7822 21.1949 57.6865 15.9886 58.2726 14.9336C58.8587 13.8787 59.6201 13 61.2612 13C62.9022 13 64.4851 13.3516 64.8367 15.5206C65.1884 17.6896 65.3637 20.6782 65.3637 20.6782L65.9498 29.235C65.9498 29.235 66.1261 31.2868 68.5286 31.2868C70.932 31.2868 71.1665 28.708 71.2246 27.1251C71.2837 25.5422 71.6935 20.409 71.6935 20.409C71.6935 20.409 72.0451 17.9241 70.2869 16.4584C68.5286 14.9927 65.3637 15.6969 65.1593 18.1191"
            stroke="#F9BF2E" stroke-miterlimit="10" stroke-linecap="round" stroke-linejoin="round" />
        <path
            d="M65.9181 28.7596C65.9181 28.7596 65.9509 31.4031 63.4303 31.2859C60.9097 31.1686 60.3827 29.176 60.1482 27.3005C59.9138 25.425 59.8547 23.3151 59.8547 23.3151C59.8547 23.3151 59.2105 20.2093 58.917 18.6846"
            stroke="#F9BF2E" stroke-miterlimit="10" stroke-linecap="round" stroke-linejoin="round" />
        <path d="M66.3018 33.3367C66.3018 33.3367 68.588 35.5638 70.9904 35.8573" stroke="#F9BF2E"
            stroke-miterlimit="10" stroke-linecap="round" stroke-linejoin="round" />
        <path
            d="M71.3262 25.365C71.3262 25.365 74.4488 31.4612 75.3275 34.597C76.2071 37.7328 76.3243 38.3836 74.5661 39.9046C72.8078 41.4256 70.0527 45.8798 69.5839 46.5831C69.115 47.2864 67.4158 49.3963 66.3018 50.6266C65.1887 51.8569 65.3641 55.7842 65.3641 57.7769C65.3641 59.7696 65.892 74.8324 66.419 77.0586C66.947 79.2857 68.2364 90.3632 69.1741 92.2386"
            stroke="#F9BF2E" stroke-miterlimit="10" stroke-linecap="round" stroke-linejoin="round" />
        <path d="M28 93H21L7 70.5L7 93H0V59H7L21 81.5L21 59H28V93Z"
            fill="url(#paint0_diamond_19_35)" />
        <rect x="4" y="54" width="20" height="3" fill="#FBCF59" />
        <path
            d="M42.0055 6.74485C46.526 7.53743 51.01 7.98198 55.4765 8.11168C59.943 8.24138 64.3921 8.05625 68.8083 7.55789C71.2841 7.26304 73.7644 6.86215 76.2219 6.39329C76.7111 6.3068 76.8936 8.04694 76.4044 8.13343C72.0437 9.01301 67.6348 9.58098 63.1894 9.80092C58.744 10.0209 54.2811 9.92597 49.7853 9.51784C47.2548 9.29065 44.7287 8.95743 42.1726 8.48661C41.9651 8.43801 41.7511 8.17897 41.6964 7.65692C41.668 7.23767 41.7826 6.69786 42.0055 6.74485Z"
            fill="#F9BF2E" />
        <path
            d="M41.704 6.98763C42.6095 8.79269 43.515 10.5977 44.4169 12.368C44.592 12.7015 44.6622 13.2219 44.5447 13.5861C44.4389 13.9139 44.1653 13.9777 44.0056 13.6426C43.1001 11.8376 42.1946 10.0325 41.2927 8.26227C41.1176 7.92877 41.0475 7.40835 41.165 7.04417C41.2707 6.7164 41.5289 6.65414 41.704 6.98763Z"
            fill="#F9BF2E" />
        <path
            d="M41.0369 6.56497C41.2606 6.47114 41.4653 6.34413 41.6817 6.18069C41.7822 6.09978 41.8827 6.01886 41.9795 5.90315C42.0221 5.8635 42.0764 5.78742 42.1189 5.74778C42.1343 5.74616 42.1732 5.67171 42.2312 5.63045C42.5995 5.1344 42.9144 4.57359 43.153 3.88003C43.2742 3.55065 43.5015 3.49162 43.692 3.8235C43.8635 4.12219 43.9409 4.71222 43.8198 5.0416C43.2258 6.65207 42.3959 7.79468 41.4123 8.21451C41.2194 8.30511 40.9855 8.15373 40.8728 7.67295C40.7982 7.25855 40.8286 6.65719 41.0369 6.56497Z"
            fill="#F9BF2E" />
        <path
            d="M74.5 10.5C74.8938 9.71232 74.9774 9.41452 75.2938 8.57206C75.6518 7.61897 75.5 8 75.776 7.18587C75.8656 7.00055 75.8346 6.85613 75.9432 6.704C76.0129 6.62632 75.9505 6.77361 75.9857 6.66436C75.9695 6.8068 76.0751 6.52192 76.0589 6.66436C76.2004 6.82545 76.0419 6.94763 76.0589 6.66436C75.99 6.60121 76.0546 6.7275 75.9857 6.66436C75.8252 6.47008 75.6647 6.2758 75.5078 6.11632C75.2059 5.76094 74.8885 5.40719 74.5866 5.05182C73.9673 4.34268 73.3325 3.63518 72.6978 2.92766C72.22 2.37962 72.448 0.8427 72.9259 1.39074C73.7175 2.25773 74.5127 3.15955 75.2925 4.06296C75.6633 4.48148 76.0342 4.9 76.3933 5.35493C76.7524 5.80987 77 6.5 76.9195 7.55162C76.5 8.5 76.7099 8.19819 76.5 8.57206C76.3172 8.9079 76.1304 9.59779 75.9857 10C75.6494 10.9501 75.2938 11.5411 74.6455 12.2939C74.479 12.4873 74.2443 12.4767 74.089 12.0356C74.089 11.2316 74 11.5 74.5 10.5Z"
            fill="#F9BF2E" />
    </g>
    <defs>
        <radialGradient id="paint0_diamond_19_35" cx="0" cy="0" r="1" gradientUnits="userSpaceOnUse"
            gradientTransform="translate(13.2592 74.9592) rotate(88.0509) scale(44.9501 45.4869)">
            <stop stop-color="#FFD458" stop-opacity="0.78" />
            <stop offset="1" stop-color="#F9BF2E" />
        </radialGradient>
        <clipPath id="clip0_19_35">
            <rect width="77.4753" height="93.8393" fill="white" transform="translate(0 0.160675)" />
        </clipPath>
    </defs>
</svg>
    